<svg width="33" height="33" viewBox="0 0 33 33" fill="none" xmlns="http://www.w3.org/2000/svg">
<rect width="33" height="33" fill="#1E1E1E"/>
<g clip-path="url(#clip0_0_1)">
<rect width="1440" height="4857" transform="translate(-771 -4747)" fill="white"/>
<rect x="-771" y="-79" width="1440" height="189" fill="#EDF4EB"/>
<rect width="33" height="33" rx="16.5" fill="#48905D"/>
<path d="M24.8576 10.6596L17.6196 17.1102C17.4517 17.2599 17.2346 17.3426 17.0096 17.3426C16.7846 17.3426 16.5675 17.2599 16.3996 17.1102L9.13131 10.6632C9.30483 10.6103 9.48524 10.5834 9.66665 10.5835H24.3333C24.5109 10.5833 24.6875 10.609 24.8576 10.6596ZM26.1006 11.9292C26.1437 12.085 26.1666 12.2482 26.1666 12.4168V21.5835C26.1666 22.0697 25.9735 22.536 25.6297 22.8799C25.2859 23.2237 24.8195 23.4168 24.3333 23.4168H9.66665C9.18042 23.4168 8.7141 23.2237 8.37029 22.8799C8.02647 22.536 7.83331 22.0697 7.83331 21.5835V12.4168C7.83313 12.2514 7.85533 12.0868 7.89931 11.9273L15.1795 18.4797C15.6832 18.9286 16.3344 19.1767 17.0091 19.1767C17.6839 19.1767 18.3351 18.9286 18.8388 18.4797L26.1006 11.9292Z" fill="white"/>
</g>
<defs>
<clipPath id="clip0_0_1">
<rect width="1440" height="4857" fill="white" transform="translate(-771 -4747)"/>
</clipPath>
</defs>
</svg>
