<svg width="33" height="33" viewBox="0 0 33 33" fill="none" xmlns="http://www.w3.org/2000/svg">
<g id="vk">
<rect id="Rectangle 1" width="33" height="33" rx="16.5" fill="#48905D"/>
<path id="Vector" d="M17.3106 22.2751C11.1094 22.2751 7.57236 17.9395 7.42499 10.7251H10.5312C10.6333 16.0203 12.9233 18.2632 14.7371 18.7257V10.7251H17.662V15.2919C19.4532 15.0954 21.3351 13.0143 21.9699 10.7251H24.8948C24.6556 11.9123 24.1787 13.0365 23.494 14.0272C22.8093 15.0179 21.9316 15.8538 20.9156 16.4828C22.0497 17.0574 23.0513 17.8708 23.8545 18.8693C24.6576 19.8677 25.244 21.0285 25.575 22.2751H22.3554C22.0583 21.1924 21.4544 20.2232 20.6195 19.4889C19.7846 18.7547 18.7558 18.2881 17.662 18.1476V22.2751H17.3106Z" fill="white"/>
</g>
</svg>
