<svg width="33" height="33" viewBox="0 0 33 33" fill="none" xmlns="http://www.w3.org/2000/svg">
<g id="whatsapp">
<rect id="Rectangle 1" width="33" height="33" rx="16.5" fill="#48905D"/>
<path id="Vector" d="M23.0396 9.95137C21.4098 8.32715 19.2366 7.4248 16.9427 7.4248C12.1738 7.4248 8.31036 11.2748 8.31036 16.0271C8.31036 17.5311 8.73293 19.035 9.45732 20.2982L8.25 24.7498L12.8378 23.5467C14.1055 24.2084 15.4939 24.5693 16.9427 24.5693C21.7116 24.5693 25.575 20.7193 25.575 15.967C25.5146 13.7412 24.6695 11.5756 23.0396 9.95137ZM21.1079 19.0951C20.9268 19.5764 20.0817 20.0576 19.6591 20.1178C19.297 20.1779 18.814 20.1779 18.3311 20.0576C18.0293 19.9373 17.6067 19.817 17.1238 19.5764C14.9506 18.674 13.5622 16.5084 13.4415 16.3279C13.3207 16.2076 12.536 15.185 12.536 14.1021C12.536 13.0193 13.0793 12.5381 13.2604 12.2975C13.4415 12.0568 13.6829 12.0568 13.864 12.0568C13.9848 12.0568 14.1659 12.0568 14.2866 12.0568C14.4073 12.0568 14.5884 11.9967 14.7695 12.4178C14.9506 12.8389 15.3732 13.9217 15.4335 13.9818C15.4939 14.1021 15.4939 14.2225 15.4335 14.3428C15.3732 14.4631 15.3128 14.5834 15.1921 14.7037C15.0713 14.824 14.9506 15.0045 14.8902 15.0646C14.7695 15.185 14.6488 15.3053 14.7695 15.4857C14.8902 15.7264 15.3128 16.3881 15.9768 16.9896C16.822 17.7115 17.486 17.9522 17.7274 18.0725C17.9689 18.1928 18.0896 18.1326 18.2104 18.0123C18.3311 17.892 18.7537 17.4107 18.8744 17.1701C18.9951 16.9295 19.1762 16.9896 19.3573 17.0498C19.5384 17.11 20.625 17.6514 20.8061 17.7717C21.0476 17.892 21.1683 17.9521 21.2287 18.0123C21.289 18.1928 21.289 18.6139 21.1079 19.0951Z" fill="white"/>
</g>
</svg>
